<?xml version="1.0" encoding="UTF-8"?>
<!--Generator: Apple Native CoreSVG 341-->
<!DOCTYPE svg
PUBLIC "-//W3C//DTD SVG 1.1//EN"
       "http://www.w3.org/Graphics/SVG/1.1/DTD/svg11.dtd">
<svg version="1.1" xmlns="http://www.w3.org/2000/svg" xmlns:xlink="http://www.w3.org/1999/xlink" viewBox="0 0 3300 2200">
 <!--glyph: "", point size: 100.0, font version: "21.0d6e2", template writer version: "138.0.0"-->
 <style>.defaults {-sfsymbols-draw-reverses-motion-groups:true}

.monochrome-0 {-sfsymbols-motion-group:1;-sfsymbols-indices:0 1 2 3;-sfsymbols-layer-tags:-6b89e3d9bec03a84 _enclosure.stroke viewfinder}
.monochrome-1 {-sfsymbols-motion-group:0;-sfsymbols-always-pulses:true;-sfsymbols-layer-tags:-6b89e3d9bec03a84}

.multicolor-0:tintColor {-sfsymbols-motion-group:1;-sfsymbols-indices:0 1 2 3;-sfsymbols-layer-tags:-6b89e3d9bec03a84 _enclosure.stroke viewfinder}
.multicolor-1:tintColor {-sfsymbols-motion-group:0;-sfsymbols-always-pulses:true;-sfsymbols-layer-tags:-6b89e3d9bec03a84}

.hierarchical-0:secondary {-sfsymbols-motion-group:1;-sfsymbols-indices:0 1 2 3;-sfsymbols-layer-tags:-6b89e3d9bec03a84 _enclosure.stroke viewfinder}
.hierarchical-1:primary {-sfsymbols-motion-group:0;-sfsymbols-always-pulses:true;-sfsymbols-layer-tags:-6b89e3d9bec03a84}

.shapeGroupLayer-0 {-sfsymbols-fill-action:draw;-sfsymbols-indices:4 5}
.shapeGroupLayer-1 {-sfsymbols-fill-action:erase;-sfsymbols-indices:6}
.shapeGroupLayer-2 {-sfsymbols-fill-action:draw;-sfsymbols-indices:7 8}

.SFSymbolsPreviewWireframe {fill:none;opacity:1.0;stroke:black;stroke-width:0.5}
</style>
 <g id="Notes">
  <rect height="2200" id="artboard" style="fill:white;opacity:1" width="3300" x="0" y="0"/>
  <line style="fill:none;stroke:black;opacity:1;stroke-width:0.5;" x1="263" x2="3036" y1="292" y2="292"/>
  <text style="stroke:none;fill:black;font-family:sans-serif;font-size:13;font-weight:bold;" transform="matrix(1 0 0 1 263 322)">Weight/Scale Variations</text>
  <text style="stroke:none;fill:black;font-family:sans-serif;font-size:13;text-anchor:middle;" transform="matrix(1 0 0 1 559.711 322)">Ultralight</text>
  <text style="stroke:none;fill:black;font-family:sans-serif;font-size:13;text-anchor:middle;" transform="matrix(1 0 0 1 856.422 322)">Thin</text>
  <text style="stroke:none;fill:black;font-family:sans-serif;font-size:13;text-anchor:middle;" transform="matrix(1 0 0 1 1153.13 322)">Light</text>
  <text style="stroke:none;fill:black;font-family:sans-serif;font-size:13;text-anchor:middle;" transform="matrix(1 0 0 1 1449.84 322)">Regular</text>
  <text style="stroke:none;fill:black;font-family:sans-serif;font-size:13;text-anchor:middle;" transform="matrix(1 0 0 1 1746.56 322)">Medium</text>
  <text style="stroke:none;fill:black;font-family:sans-serif;font-size:13;text-anchor:middle;" transform="matrix(1 0 0 1 2043.27 322)">Semibold</text>
  <text style="stroke:none;fill:black;font-family:sans-serif;font-size:13;text-anchor:middle;" transform="matrix(1 0 0 1 2339.98 322)">Bold</text>
  <text style="stroke:none;fill:black;font-family:sans-serif;font-size:13;text-anchor:middle;" transform="matrix(1 0 0 1 2636.69 322)">Heavy</text>
  <text style="stroke:none;fill:black;font-family:sans-serif;font-size:13;text-anchor:middle;" transform="matrix(1 0 0 1 2933.4 322)">Black</text>
  <line style="fill:none;stroke:black;opacity:1;stroke-width:0.5;" x1="263" x2="3036" y1="1903" y2="1903"/>
  <g transform="matrix(0.2 0 0 0.2 263 1933)">
   <path d="m46.2402 4.15039c21.7773 0 39.4531-17.627 39.4531-39.4043s-17.6758-39.4043-39.4531-39.4043c-21.7285 0-39.4043 17.627-39.4043 39.4043s17.6758 39.4043 39.4043 39.4043Zm0-7.42188c-17.6758 0-31.9336-14.3066-31.9336-31.9824s14.2578-31.9824 31.9336-31.9824 31.9824 14.3066 31.9824 31.9824-14.3066 31.9824-31.9824 31.9824Zm3.61328-17.7734v-28.4668c0-2.24609-1.46484-3.75977-3.71094-3.75977-2.14844 0-3.61328 1.51367-3.61328 3.75977v28.4668c0 2.19727 1.46484 3.71094 3.61328 3.71094 2.24609 0 3.71094-1.51367 3.71094-3.71094Zm-17.8223-10.5957h28.418c2.19727 0 3.71094-1.46484 3.71094-3.61328 0-2.19727-1.51367-3.71094-3.71094-3.71094h-28.418c-2.24609 0-3.75977 1.51367-3.75977 3.71094 0 2.14844 1.51367 3.61328 3.75977 3.61328Z"/>
  </g>
  <g transform="matrix(0.2 0 0 0.2 281.506 1933)">
   <path d="m58.5449 14.5508c27.4902 0 49.8047-22.3145 49.8047-49.8047s-22.3145-49.8047-49.8047-49.8047-49.8047 22.3145-49.8047 49.8047 22.3145 49.8047 49.8047 49.8047Zm0-8.30078c-22.9492 0-41.5039-18.5547-41.5039-41.5039s18.5547-41.5039 41.5039-41.5039 41.5039 18.5547 41.5039 41.5039-18.5547 41.5039-41.5039 41.5039Zm4.05273-23.0957v-36.9141c0-2.49023-1.70898-4.19922-4.15039-4.19922-2.39258 0-4.05273 1.70898-4.05273 4.19922v36.9141c0 2.44141 1.66016 4.15039 4.05273 4.15039 2.44141 0 4.15039-1.66016 4.15039-4.15039Zm-22.5586-14.4043h36.9629c2.44141 0 4.15039-1.61133 4.15039-4.00391 0-2.44141-1.70898-4.15039-4.15039-4.15039h-36.9629c-2.49023 0-4.15039 1.70898-4.15039 4.15039 0 2.39258 1.66016 4.00391 4.15039 4.00391Z"/>
  </g>
  <g transform="matrix(0.2 0 0 0.2 304.924 1933)">
   <path d="m74.8535 28.3203c35.1074 0 63.623-28.4668 63.623-63.5742s-28.5156-63.623-63.623-63.623-63.5742 28.5156-63.5742 63.623 28.4668 63.5742 63.5742 63.5742Zm0-9.08203c-30.127 0-54.4922-24.3652-54.4922-54.4922s24.3652-54.4922 54.4922-54.4922 54.4922 24.3652 54.4922 54.4922-24.3652 54.4922-54.4922 54.4922Zm4.44336-30.3223v-48.4863c0-2.73438-1.85547-4.63867-4.54102-4.63867-2.58789 0-4.44336 1.9043-4.44336 4.63867v48.4863c0 2.68555 1.85547 4.58984 4.44336 4.58984 2.68555 0 4.54102-1.85547 4.54102-4.58984Zm-28.7109-19.7754h48.4863c2.68555 0 4.58984-1.80664 4.58984-4.39453 0-2.73438-1.85547-4.58984-4.58984-4.58984h-48.4863c-2.73438 0-4.58984 1.85547-4.58984 4.58984 0 2.58789 1.85547 4.39453 4.58984 4.39453Z"/>
  </g>
  <text style="stroke:none;fill:black;font-family:sans-serif;font-size:13;font-weight:bold;" transform="matrix(1 0 0 1 263 1953)">Design Variations</text>
  <text style="stroke:none;fill:black;font-family:sans-serif;font-size:13;" transform="matrix(1 0 0 1 263 1971)">Symbols are supported in up to nine weights and three scales.</text>
  <text style="stroke:none;fill:black;font-family:sans-serif;font-size:13;" transform="matrix(1 0 0 1 263 1989)">For optimal layout with text and other symbols, vertically align</text>
  <text style="stroke:none;fill:black;font-family:sans-serif;font-size:13;" transform="matrix(1 0 0 1 263 2007)">symbols with the adjacent text.</text>
  <line style="fill:none;stroke:#00AEEF;stroke-width:0.5;opacity:1.0;" x1="776" x2="776" y1="1919" y2="1933"/>
  <g transform="matrix(0.2 0 0 0.2 776 1933)">
   <path d="m16.5527 0.78125c2.58789 0 3.85742-0.976562 4.78516-3.71094l20.5566-57.5195h0.244141l20.6055 57.5195c0.927734 2.73438 2.19727 3.71094 4.73633 3.71094 2.58789 0 4.24805-1.5625 4.24805-4.00391 0-0.830078-0.146484-1.61133-0.537109-2.63672l-22.9004-60.9863c-1.12305-2.97852-3.125-4.49219-6.25-4.49219-3.02734 0-5.07812 1.46484-6.15234 4.44336l-22.9004 61.084c-0.390625 1.02539-0.537109 1.80664-0.537109 2.63672 0 2.44141 1.5625 3.95508 4.10156 3.95508Zm10.2051-20.9473h30.6641c2.00195 0 3.66211-1.66016 3.66211-3.66211 0-2.05078-1.66016-3.66211-3.66211-3.66211h-30.6641c-2.00195 0-3.66211 1.61133-3.66211 3.66211 0 2.00195 1.66016 3.66211 3.66211 3.66211Z"/>
  </g>
  <line style="fill:none;stroke:#00AEEF;stroke-width:0.5;opacity:1.0;" x1="792.836" x2="792.836" y1="1919" y2="1933"/>
  <text style="stroke:none;fill:black;font-family:sans-serif;font-size:13;font-weight:bold;" transform="matrix(1 0 0 1 776 1953)">Margins</text>
  <text style="stroke:none;fill:black;font-family:sans-serif;font-size:13;" transform="matrix(1 0 0 1 776 1971)">Leading and trailing margins on the left and right side of each symbol</text>
  <text style="stroke:none;fill:black;font-family:sans-serif;font-size:13;" transform="matrix(1 0 0 1 776 1989)">can be adjusted by modifying the x-location of the margin guidelines.</text>
  <text style="stroke:none;fill:black;font-family:sans-serif;font-size:13;" transform="matrix(1 0 0 1 776 2007)">Modifications are automatically applied proportionally to all</text>
  <text style="stroke:none;fill:black;font-family:sans-serif;font-size:13;" transform="matrix(1 0 0 1 776 2025)">scales and weights.</text>
  <g transform="matrix(0.2 0 0 0.2 1289 1933)">
   <path d="m14.209 13.1348 7.86133 7.86133c4.29688 4.39453 9.32617 4.10156 13.8672-1.02539l60.6934-68.2129-4.88281-4.88281-60.2539 67.6758c-1.80664 1.95312-3.4668 2.44141-5.81055 0.0976562l-5.17578-5.12695c-2.29492-2.29492-1.80664-3.95508 0.195312-5.81055l67.4805-62.1582-4.88281-4.83398-68.0664 62.5977c-4.98047 4.58984-5.32227 9.47266-1.02539 13.8184Zm44.873-97.4609c-2.05078 2.00195-2.24609 4.88281-1.07422 6.78711 1.12305 1.80664 3.4668 3.02734 6.5918 2.24609 5.85938-1.66016 12.5977-2.39258 18.8965 0.927734l-2.68555 7.12891c-1.61133 4.00391-0.732422 6.88477 1.70898 9.42383l10.2539 10.3027c2.34375 2.39258 4.54102 2.44141 7.08008 1.95312l4.44336-0.732422 2.58789 2.53906-0.195312 2.24609c-0.0976562 2.29492 0.537109 4.29688 2.7832 6.49414l3.36914 3.32031c2.29492 2.29492 5.51758 2.49023 7.8125 0.195312l12.9883-13.0371c2.29492-2.34375 2.14844-5.37109-0.195312-7.66602l-3.41797-3.41797c-2.19727-2.19727-4.05273-3.02734-6.34766-2.88086l-2.34375 0.244141-2.44141-2.44141 1.02539-4.6875c0.634766-2.73438-0.244141-4.98047-2.88086-7.61719l-11.2793-11.1816c-12.9395-12.8418-35.5957-11.0352-46.6797-0.146484Zm7.08008 2.05078c8.78906-6.39648 25.9766-5.66406 33.6914 1.95312l12.3047 12.207c1.02539 1.02539 1.2207 1.80664 0.927734 3.32031l-1.46484 6.64062 6.73828 6.68945 4.39453-0.244141c1.12305-0.0488281 1.51367 0.0488281 2.34375 0.878906l2.53906 2.49023-10.8398 10.8398-2.49023-2.49023c-0.830078-0.878906-0.976562-1.2207-0.927734-2.39258l0.292969-4.3457-6.68945-6.73828-6.83594 1.17188c-1.41602 0.292969-2.05078 0.195312-3.17383-0.878906l-8.93555-8.88672c-1.07422-1.02539-1.17188-1.70898-0.488281-3.36914l4.58984-11.4746c-6.10352-6.34766-17.041-7.51953-25.5859-4.58984-0.683594 0.244141-0.927734-0.390625-0.390625-0.78125Z"/>
  </g>
  <text style="stroke:none;fill:black;font-family:sans-serif;font-size:13;font-weight:bold;" transform="matrix(1 0 0 1 1289 1953)">Exporting</text>
  <text style="stroke:none;fill:black;font-family:sans-serif;font-size:13;" transform="matrix(1 0 0 1 1289 1971)">Symbols should be outlined when exporting to ensure the</text>
  <text style="stroke:none;fill:black;font-family:sans-serif;font-size:13;" transform="matrix(1 0 0 1 1289 1989)">design is preserved when submitting to Xcode.</text>
  <text id="template-version" style="stroke:none;fill:black;font-family:sans-serif;font-size:13;text-anchor:end;" transform="matrix(1 0 0 1 3036 1933)">Template v.7.0</text>
  <text style="stroke:none;fill:black;font-family:sans-serif;font-size:13;text-anchor:end;" transform="matrix(1 0 0 1 3036 1951)">Requires Xcode 17 or greater</text>
  <text id="descriptive-name" style="stroke:none;fill:black;font-family:sans-serif;font-size:13;text-anchor:end;" transform="matrix(1 0 0 1 3036 1969)">Generated from viewfinder</text>
  <text style="stroke:none;fill:black;font-family:sans-serif;font-size:13;text-anchor:end;" transform="matrix(1 0 0 1 3036 1987)">Typeset at 100.0 points</text>
  <text style="stroke:none;fill:black;font-family:sans-serif;font-size:13;" transform="matrix(1 0 0 1 263 726)">Small</text>
  <text style="stroke:none;fill:black;font-family:sans-serif;font-size:13;" transform="matrix(1 0 0 1 263 1156)">Medium</text>
  <text style="stroke:none;fill:black;font-family:sans-serif;font-size:13;" transform="matrix(1 0 0 1 263 1586)">Large</text>
 </g>
 <g id="Guides">
  <g id="H-reference" style="fill:#27AAE1;stroke:none;" transform="matrix(1 0 0 1 339 696)">
   <path d="M0.993654 0L3.63775 0L29.3281-67.1323L30.0303-67.1323L30.0303-70.459L28.1226-70.459ZM11.6885-24.4799L46.9815-24.4799L46.2315-26.7285L12.4385-26.7285ZM55.1196 0L57.7637 0L30.6382-70.459L29.4326-70.459L29.4326-67.1323Z"/>
  </g>
  <line id="Baseline-S" style="fill:none;stroke:#27AAE1;opacity:1;stroke-width:0.5;" x1="263" x2="3036" y1="696" y2="696"/>
  <line id="Capline-S" style="fill:none;stroke:#27AAE1;opacity:1;stroke-width:0.5;" x1="263" x2="3036" y1="625.541" y2="625.541"/>
  <g id="H-reference" style="fill:#27AAE1;stroke:none;" transform="matrix(1 0 0 1 339 1126)">
   <path d="M0.993654 0L3.63775 0L29.3281-67.1323L30.0303-67.1323L30.0303-70.459L28.1226-70.459ZM11.6885-24.4799L46.9815-24.4799L46.2315-26.7285L12.4385-26.7285ZM55.1196 0L57.7637 0L30.6382-70.459L29.4326-70.459L29.4326-67.1323Z"/>
  </g>
  <line id="Baseline-M" style="fill:none;stroke:#27AAE1;opacity:1;stroke-width:0.5;" x1="263" x2="3036" y1="1126" y2="1126"/>
  <line id="Capline-M" style="fill:none;stroke:#27AAE1;opacity:1;stroke-width:0.5;" x1="263" x2="3036" y1="1055.54" y2="1055.54"/>
  <g id="H-reference" style="fill:#27AAE1;stroke:none;" transform="matrix(1 0 0 1 339 1556)">
   <path d="M0.993654 0L3.63775 0L29.3281-67.1323L30.0303-67.1323L30.0303-70.459L28.1226-70.459ZM11.6885-24.4799L46.9815-24.4799L46.2315-26.7285L12.4385-26.7285ZM55.1196 0L57.7637 0L30.6382-70.459L29.4326-70.459L29.4326-67.1323Z"/>
  </g>
  <line id="Baseline-L" style="fill:none;stroke:#27AAE1;opacity:1;stroke-width:0.5;" x1="263" x2="3036" y1="1556" y2="1556"/>
  <line id="Capline-L" style="fill:none;stroke:#27AAE1;opacity:1;stroke-width:0.5;" x1="263" x2="3036" y1="1485.54" y2="1485.54"/>
  <line id="right-margin-Black-S" style="fill:none;stroke:#00AEEF;stroke-width:0.5;opacity:1.0;" x1="2983.25" x2="2983.25" y1="600.785" y2="720.121"/>
  <line id="left-margin-Black-S" style="fill:none;stroke:#00AEEF;stroke-width:0.5;opacity:1.0;" x1="2883.55" x2="2883.55" y1="600.785" y2="720.121"/>
  <line id="right-margin-Regular-S" style="fill:none;stroke:#00AEEF;stroke-width:0.5;opacity:1.0;" x1="1497.57" x2="1497.57" y1="600.785" y2="720.121"/>
  <line id="left-margin-Regular-S" style="fill:none;stroke:#00AEEF;stroke-width:0.5;opacity:1.0;" x1="1402.11" x2="1402.11" y1="600.785" y2="720.121"/>
  <line id="right-margin-Ultralight-S" style="fill:none;stroke:#00AEEF;stroke-width:0.5;opacity:1.0;" x1="604.58" x2="604.58" y1="600.785" y2="720.121"/>
  <line id="left-margin-Ultralight-S" style="fill:none;stroke:#00AEEF;stroke-width:0.5;opacity:1.0;" x1="514.842" x2="514.842" y1="600.785" y2="720.121"/>
 </g>
 <g id="Symbols">
  <g id="Black-S" transform="matrix(1 0 0 1 2883.55 696)">
   <path class="SFSymbolsPreviewWireframe" d="M16.8457-43.9453C21.4355-43.9453 23.9258-46.4844 23.9258-51.0742L23.9258-57.8125C23.9258-60.2539 25-61.1328 27.2461-61.1328L33.9844-61.1328C38.623-61.1328 41.1133-63.623 41.1133-68.2129C41.1133-72.8027 38.623-75.293 33.9844-75.293L25-75.293C15.4297-75.293 9.76562-69.6289 9.76562-60.0586L9.76562-51.0742C9.76562-46.4355 12.2559-43.9453 16.8457-43.9453ZM82.8613-43.9453C87.4512-43.9453 89.9414-46.4355 89.9414-51.0742L89.9414-60.0586C89.9414-69.6289 84.2773-75.293 74.707-75.293L65.7227-75.293C61.084-75.293 58.5938-72.8027 58.5938-68.2129C58.5938-63.623 61.1328-61.1328 65.7227-61.1328L72.4609-61.1328C74.707-61.1328 75.7812-60.2539 75.7812-57.8125L75.7812-51.0742C75.7812-46.4355 78.2715-43.9453 82.8613-43.9453ZM25 4.88281L33.9844 4.88281C38.623 4.88281 41.1133 2.39258 41.1133-2.19727C41.1133-6.78711 38.5742-9.27734 33.9844-9.27734L27.2461-9.27734C25-9.27734 23.9258-10.1562 23.9258-12.5977L23.9258-19.3359C23.9258-23.9746 21.4355-26.4648 16.8457-26.4648C12.2559-26.4648 9.76562-23.9746 9.76562-19.3359L9.76562-10.3516C9.76562-0.78125 15.4297 4.88281 25 4.88281ZM65.7227 4.88281L74.707 4.88281C84.2773 4.88281 89.9414-0.78125 89.9414-10.3516L89.9414-19.3359C89.9414-23.9746 87.4512-26.4648 82.8613-26.4648C78.2715-26.4648 75.7812-23.9258 75.7812-19.3359L75.7812-12.5977C75.7812-10.1562 74.707-9.27734 72.4609-9.27734L65.7227-9.27734C61.084-9.27734 58.5938-6.78711 58.5938-2.19727C58.5938 2.39258 61.084 4.88281 65.7227 4.88281ZM37.4516-35.2936C41.4668-35.2936 44.5457-38.7337 44.5457-42.9495C44.5457-46.9699 41.418-50.5212 37.4516-50.5212C33.4837-50.5212 30.3835-46.9455 30.3835-42.9525C30.3835-38.7337 33.4349-35.2936 37.4516-35.2936ZM27.6373-17.3438L47.2795-17.3438C50.831-17.3438 51.8759-19.1404 51.8759-22.0079C51.8759-26.5661 45.5383-32.5085 37.4576-32.5085C29.3755-32.5085 23.0409-26.5661 23.0409-22.0079C23.0409-19.1404 24.0858-17.3438 27.6373-17.3438ZM48.792-13.3843L71.3794-13.3843C78.1442-13.3843 80.6535-17.2049 80.6535-21.1383C80.6535-28.365 72.1079-36.48 60.0865-36.48C48.0653-36.48 39.5224-28.365 39.5224-21.1383C39.5224-17.147 42.0014-13.3843 48.792-13.3843ZM60.0805-35.7071C64.6906-35.7071 68.2134-39.637 68.2134-44.4936C68.2134-49.1015 64.6418-53.1715 60.0805-53.1715C55.5177-53.1715 51.949-49.1075 51.949-44.4966C51.949-39.637 55.4689-35.7071 60.0805-35.7071ZM47.9243-17.3727L72.2472-17.3727C74.982-17.3727 76.6667-18.8114 76.6667-21.1383C76.6667-25.9617 70.0135-32.4946 60.0865-32.4946C50.1579-32.4946 43.5078-25.9617 43.5078-21.1383C43.5078-18.8114 45.1924-17.3727 47.9243-17.3727Z"/>
  </g>
  <g id="Regular-S" transform="matrix(1 0 0 1 1402.11 696)">
   <path class="SFSymbolsPreviewWireframe" d="M13.2812-48.2422C15.5762-48.2422 16.7969-49.5117 16.7969-51.8066L16.7969-60.5469C16.7969-64.209 18.7988-66.1133 22.3145-66.1133L31.2988-66.1133C33.5938-66.1133 34.8633-67.3828 34.8633-69.6289C34.8633-71.9238 33.5938-73.1934 31.2988-73.1934L22.2168-73.1934C13.916-73.1934 9.76562-69.0918 9.76562-60.8887L9.76562-51.8066C9.76562-49.5117 11.0352-48.2422 13.2812-48.2422ZM82.1777-48.2422C84.4727-48.2422 85.6934-49.5117 85.6934-51.8066L85.6934-60.8887C85.6934-69.0918 81.5918-73.1934 73.2422-73.1934L64.1602-73.1934C61.8652-73.1934 60.5957-71.9238 60.5957-69.6289C60.5957-67.3828 61.8652-66.1133 64.1602-66.1133L73.1445-66.1133C76.6602-66.1133 78.6621-64.209 78.6621-60.5469L78.6621-51.8066C78.6621-49.5117 79.9316-48.2422 82.1777-48.2422ZM22.2168 2.7832L31.2988 2.7832C33.5938 2.7832 34.8633 1.51367 34.8633-0.732422C34.8633-3.02734 33.5938-4.29688 31.2988-4.29688L22.3145-4.29688C18.7988-4.29688 16.7969-6.20117 16.7969-9.86328L16.7969-18.5547C16.7969-20.8984 15.5273-22.168 13.2812-22.168C10.9863-22.168 9.76562-20.8984 9.76562-18.5547L9.76562-9.52148C9.76562-1.31836 13.916 2.7832 22.2168 2.7832ZM64.1602 2.7832L73.2422 2.7832C81.5918 2.7832 85.6934-1.31836 85.6934-9.52148L85.6934-18.5547C85.6934-20.8984 84.4238-22.168 82.1777-22.168C79.8828-22.168 78.6621-20.8984 78.6621-18.5547L78.6621-9.86328C78.6621-6.20117 76.6602-4.29688 73.1445-4.29688L64.1602-4.29688C61.8652-4.29688 60.5957-3.02734 60.5957-0.732422C60.5957 1.51367 61.8652 2.7832 64.1602 2.7832ZM35.5237-35.3216C39.2758-35.3216 42.401-38.6373 42.401-42.8307C42.401-46.9466 39.2564-50.1759 35.5237-50.1759C31.8049-50.1759 28.6569-46.8927 28.6569-42.8029C28.6569-38.6373 31.7856-35.3216 35.5237-35.3216ZM25.3251-17.692L45.7443-17.692C48.7661-17.692 49.7579-19.0466 49.7579-21.2564C49.7579-26.2273 43.9505-32.4525 35.5269-32.4525C27.1173-32.4525 21.3115-26.2273 21.3115-21.2564C21.3115-19.0466 22.3033-17.692 25.3251-17.692ZM46.2379-14.3515L69.3822-14.3515C75.4798-14.3515 77.4827-17.5348 77.4827-20.8066C77.4827-27.6785 69.5355-35.77 57.8032-35.77C46.071-35.77 38.1252-27.6785 38.1252-20.8066C38.1252-17.5105 40.1299-14.3515 46.2379-14.3515ZM57.8-35.7505C62.1134-35.7505 65.6952-39.5406 65.6952-44.372C65.6952-49.0894 62.094-52.8052 57.8-52.8052C53.5198-52.8052 49.9202-49.0337 49.9202-44.3442C49.9202-39.5406 53.5004-35.7505 57.8-35.7505ZM45.874-17.7041L69.7462-17.7041C72.815-17.7041 74.1458-18.8519 74.1458-20.8066C74.1458-25.7085 67.7527-32.4191 57.8032-32.4191C47.8674-32.4191 41.4762-25.7085 41.4762-20.8066C41.4762-18.8519 42.8068-17.7041 45.874-17.7041Z"/>
  </g>
  <g id="Ultralight-S" transform="matrix(1 0 0 1 514.842 696)">
   <path class="SFSymbolsPreviewWireframe" d="M10.8745-48.5146C11.5801-48.5146 11.9834-48.9668 11.9834-49.6724L11.9834-60.1836C11.9834-65.3896 14.6665-68.0659 19.8623-68.0659L30.3906-68.0659C31.0962-68.0659 31.503-68.4726 31.503-69.1748C31.503-69.8804 31.0962-70.2871 30.3906-70.2871L19.7647-70.2871C13.2349-70.2871 9.76562-66.8213 9.76562-60.2983L9.76562-49.6724C9.76562-48.9668 10.1724-48.5146 10.8745-48.5146ZM78.8628-48.5146C79.6138-48.5146 79.9717-48.9668 79.9717-49.6724L79.9717-60.2983C79.9717-66.7305 76.5513-70.2871 69.9727-70.2871L59.3921-70.2871C58.6411-70.2871 58.2344-69.8804 58.2344-69.1748C58.2344-68.4726 58.6411-68.0659 59.3921-68.0659L69.875-68.0659C74.8892-68.0659 77.7993-65.3896 77.7993-60.1836L77.7993-49.6724C77.7993-48.9668 78.1607-48.5146 78.8628-48.5146ZM19.7647-0.0322044L30.3906-0.0322044C31.0962-0.0322044 31.503-0.438949 31.503-1.14111C31.503-1.84669 31.0962-2.25343 30.3906-2.25343L19.8623-2.25343C14.6665-2.25343 11.9834-4.9297 11.9834-10.1357L11.9834-20.6435C11.9834-21.3525 11.5767-21.8047 10.8745-21.8047C10.169-21.8047 9.76562-21.3525 9.76562-20.6435L9.76562-10.021C9.76562-3.49803 13.2349-0.0322044 19.7647-0.0322044ZM59.3921-0.0322044L69.9727-0.0322044C76.5513-0.0322044 79.9717-3.58885 79.9717-10.021L79.9717-20.6435C79.9717-21.3525 79.6104-21.8047 78.8628-21.8047C78.1572-21.8047 77.7993-21.3525 77.7993-20.6435L77.7993-10.1357C77.7993-4.9297 74.8892-2.25343 69.875-2.25343L59.3921-2.25343C58.6411-2.25343 58.2344-1.84669 58.2344-1.14111C58.2344-0.438949 58.6411-0.0322044 59.3921-0.0322044ZM32.8507-35.2818C36.4727-35.2818 39.4063-38.4325 39.4063-42.5497C39.4063-46.4943 36.4295-49.6411 32.8507-49.6411C29.2818-49.6411 26.3095-46.4642 26.3095-42.5297C26.3095-38.4325 29.2387-35.2818 32.8507-35.2818ZM21.849-18.2587L43.7904-18.2587C45.784-18.2587 46.7073-19.0539 46.7073-20.7585C46.7073-26.1327 41.3881-32.3521 32.8219-32.3521C24.2656-32.3521 18.9321-26.1327 18.9321-20.7585C18.9321-19.0539 19.8554-18.2587 21.849-18.2587ZM42.3319-16.2513L67.365-16.2513C71.2087-16.2513 72.8159-18.0735 72.8159-20.612C72.8159-26.657 65.7813-34.2963 54.8434-34.2963C43.9056-34.2963 36.8566-26.657 36.8566-20.612C36.8566-18.0735 38.4735-16.2513 42.3319-16.2513ZM54.8722-35.7069C59.0313-35.7069 62.3855-39.3358 62.3855-44.0591C62.3855-48.5852 58.9881-52.2103 54.8722-52.2103C50.7662-52.2103 47.3544-48.5451 47.3544-44.039C47.3544-39.3358 50.723-35.7069 54.8722-35.7069ZM42.3319-18.2587L67.365-18.2587C69.7441-18.2587 70.804-18.9562 70.804-20.612C70.804-25.5105 64.689-32.2745 54.8434-32.2745C45.0076-32.2745 38.8784-25.5105 38.8784-20.612C38.8784-18.9562 39.9382-18.2587 42.3319-18.2587Z"/>
  </g>
 </g>
 <g id="LayerTree">
  <g class="monochrome-0 multicolor-0:tintColor hierarchical-0:secondary"/>
  <g class="monochrome-1 multicolor-1:tintColor hierarchical-1:primary">
   <g class="shapeGroupLayer-0"/>
   <g class="shapeGroupLayer-1"/>
   <g class="shapeGroupLayer-2"/>
  </g>
 </g>
</svg>
